<svg xmlns="http://www.w3.org/2000/svg" xmlns:xlink="http://www.w3.org/1999/xlink" width="500" zoomAndPan="magnify" viewBox="0 0 375 374.999991" height="500" preserveAspectRatio="xMidYMid meet" version="1.0"><defs><clipPath id="id1"><path d="M 60.542969 33.558594 L 320 33.558594 L 320 325.308594 L 60.542969 325.308594 Z M 60.542969 33.558594 " clip-rule="nonzero"/></clipPath><clipPath id="id2"><path d="M 207.332031 135.445312 C 208.804688 135.445312 209.996094 134.25 209.996094 132.777344 L 209.996094 97.222656 L 254.203125 97.222656 L 254.203125 142.433594 C 254.203125 143.90625 255.394531 145.097656 256.867188 145.097656 C 258.339844 145.097656 259.535156 143.90625 259.535156 142.433594 L 259.535156 97.222656 L 303.261719 97.222656 L 303.261719 210.617188 C 303.261719 212.277344 301.914062 213.625 300.257812 213.625 L 295.042969 213.625 C 293.570312 213.625 292.375 214.820312 292.375 216.292969 C 292.375 217.765625 293.570312 218.960938 295.042969 218.960938 L 300.257812 218.960938 C 304.855469 218.960938 308.59375 215.21875 308.59375 210.617188 L 308.59375 94.554688 C 308.59375 93.625 308.117188 92.808594 307.398438 92.332031 L 283.535156 53.691406 L 283.535156 42.464844 C 283.535156 37.550781 279.539062 33.554688 274.628906 33.554688 L 238.339844 33.554688 C 233.429688 33.554688 229.433594 37.550781 229.433594 42.464844 L 229.433594 53.691406 L 205.0625 93.152344 C 205.035156 93.203125 205.015625 93.253906 204.988281 93.304688 C 204.941406 93.394531 204.894531 93.488281 204.855469 93.582031 C 204.824219 93.664062 204.800781 93.746094 204.777344 93.828125 C 204.753906 93.910156 204.730469 93.992188 204.714844 94.082031 C 204.695312 94.179688 204.691406 94.277344 204.683594 94.378906 C 204.679688 94.4375 204.667969 94.496094 204.667969 94.554688 L 204.667969 132.777344 C 204.667969 134.25 205.859375 135.445312 207.332031 135.445312 Z M 279.382812 57.117188 L 300.859375 91.886719 L 258.355469 91.886719 L 236.878906 57.117188 Z M 232.101562 59.523438 L 252.085938 91.886719 L 212.113281 91.886719 Z M 238.339844 38.890625 L 274.628906 38.890625 C 276.601562 38.890625 278.203125 40.492188 278.203125 42.464844 L 278.203125 51.78125 L 234.765625 51.78125 L 234.765625 42.464844 C 234.765625 40.492188 236.367188 38.890625 238.339844 38.890625 Z M 68.023438 142.359375 C 63.171875 137.527344 60.605469 131.992188 60.605469 126.359375 C 60.605469 107.804688 87.304688 93.273438 121.386719 93.273438 C 142.75 93.273438 162.109375 99.097656 173.167969 108.859375 C 174.273438 109.835938 174.378906 111.519531 173.40625 112.625 C 172.433594 113.730469 170.75 113.839844 169.644531 112.859375 C 159.679688 104.070312 141.1875 98.609375 121.386719 98.609375 C 91.332031 98.609375 65.9375 111.316406 65.9375 126.359375 C 65.9375 130.601562 67.90625 134.714844 71.785156 138.582031 C 74.601562 141.386719 76.21875 145.429688 76.21875 149.667969 L 76.21875 208.242188 C 76.21875 211.210938 78.632812 213.625 81.601562 213.625 L 133.726562 213.625 C 135.199219 213.625 136.390625 214.820312 136.390625 216.292969 C 136.390625 217.765625 135.199219 218.960938 133.726562 218.960938 L 81.601562 218.960938 C 75.695312 218.960938 70.886719 214.152344 70.886719 208.242188 L 70.886719 149.667969 C 70.886719 146.839844 69.84375 144.175781 68.023438 142.359375 Z M 90.734375 191.78125 C 90.734375 197.792969 95.621094 202.683594 101.628906 202.683594 C 107.636719 202.683594 112.523438 197.792969 112.523438 191.78125 C 112.523438 185.769531 107.636719 180.878906 101.628906 180.878906 C 95.621094 180.878906 90.734375 185.769531 90.734375 191.78125 Z M 107.191406 191.78125 C 107.191406 194.851562 104.695312 197.347656 101.628906 197.347656 C 98.5625 197.347656 96.066406 194.851562 96.066406 191.78125 C 96.066406 188.710938 98.5625 186.210938 101.628906 186.210938 C 104.695312 186.210938 107.191406 188.710938 107.191406 191.78125 Z M 117.015625 132.777344 C 117.015625 126.765625 112.128906 121.875 106.117188 121.875 C 100.109375 121.875 95.222656 126.765625 95.222656 132.777344 C 95.222656 138.789062 100.109375 143.679688 106.117188 143.679688 C 112.128906 143.679688 117.015625 138.789062 117.015625 132.777344 Z M 106.117188 138.34375 C 103.050781 138.34375 100.554688 135.847656 100.554688 132.777344 C 100.554688 129.707031 103.050781 127.210938 106.117188 127.210938 C 109.1875 127.210938 111.683594 129.707031 111.683594 132.777344 C 111.683594 135.847656 109.1875 138.34375 106.117188 138.34375 Z M 166.898438 141.273438 C 166.449219 126.1875 176.449219 119.316406 176.90625 119.011719 C 178.132812 118.191406 179.785156 118.523438 180.601562 119.75 C 181.417969 120.976562 181.085938 122.632812 179.863281 123.449219 C 179.523438 123.683594 171.765625 129.144531 172.230469 141.371094 C 173.890625 141.046875 175.664062 140.488281 177.515625 139.882812 C 181.816406 138.476562 186.6875 136.890625 192.054688 137.8125 C 195.222656 138.363281 198.191406 139.449219 200.886719 141.035156 C 202.15625 141.78125 202.578125 143.417969 201.832031 144.683594 C 201.085938 145.953125 199.453125 146.382812 198.183594 145.632812 C 196.042969 144.371094 193.675781 143.511719 191.144531 143.070312 C 187.082031 142.367188 183.0625 143.683594 179.171875 144.953125 C 176.226562 145.917969 173.183594 146.890625 170.167969 146.964844 C 170.15625 146.964844 170.148438 146.96875 170.136719 146.972656 C 170.03125 146.984375 169.921875 146.988281 169.816406 146.992188 C 169.8125 146.992188 169.808594 146.992188 169.800781 146.992188 C 169.796875 146.992188 169.796875 146.992188 169.796875 146.992188 C 166.660156 146.988281 163.496094 145.957031 160.433594 144.953125 C 156.542969 143.683594 152.519531 142.359375 148.460938 143.074219 C 137.226562 145.019531 130.519531 154.421875 130.519531 168.222656 C 130.519531 186.941406 139.144531 209.007812 158.089844 213.207031 C 160.617188 213.773438 163.417969 214.042969 166.765625 212.257812 C 168.667969 211.246094 170.9375 211.246094 172.835938 212.257812 C 174.5 213.144531 176.164062 213.589844 177.925781 213.621094 C 179.398438 213.652344 180.570312 214.867188 180.542969 216.339844 C 180.515625 217.808594 179.300781 218.898438 177.828125 218.957031 C 175.207031 218.910156 172.753906 218.257812 170.332031 216.96875 C 170.007812 216.792969 169.597656 216.792969 169.269531 216.96875 C 166.425781 218.484375 163.796875 218.964844 161.476562 218.964844 C 159.789062 218.964844 158.265625 218.710938 156.9375 218.417969 C 135.121094 213.578125 125.1875 189.007812 125.1875 168.222656 C 125.1875 148.660156 136.738281 139.6875 147.550781 137.816406 C 152.917969 136.890625 157.789062 138.480469 162.089844 139.882812 C 163.765625 140.433594 165.375 140.9375 166.898438 141.273438 Z M 146.230469 168.222656 C 146.230469 177.910156 149.234375 187.878906 153.890625 193.613281 C 154.820312 194.757812 154.644531 196.433594 153.503906 197.363281 C 153.011719 197.765625 152.414062 197.960938 151.824219 197.960938 C 151.050781 197.960938 150.28125 197.625 149.753906 196.976562 C 144.292969 190.246094 140.898438 179.226562 140.898438 168.222656 C 140.898438 159.152344 144.339844 153.351562 150.34375 152.3125 C 151.792969 152.046875 153.175781 153.03125 153.425781 154.484375 C 153.679688 155.933594 152.707031 157.316406 151.253906 157.566406 C 146.589844 158.375 146.230469 165.925781 146.230469 168.222656 Z M 271.757812 152.8125 C 260.808594 149.660156 246.0625 152.382812 236.238281 165.003906 C 226.914062 152.394531 212.371094 149.511719 201.382812 152.511719 C 187.722656 156.230469 178.898438 168.214844 178.898438 183.042969 C 178.898438 212.433594 199.398438 237.839844 235.148438 252.753906 C 235.476562 252.890625 235.824219 252.960938 236.175781 252.960938 C 236.523438 252.960938 236.871094 252.890625 237.199219 252.753906 C 272.949219 237.839844 293.453125 212.433594 293.453125 183.042969 C 293.453125 168.25 285.140625 156.664062 271.757812 152.8125 Z M 236.175781 247.398438 C 203.144531 233.304688 184.226562 209.894531 184.226562 183.042969 C 184.226562 168.050781 193.8125 160.101562 202.78125 157.660156 C 204.933594 157.074219 207.328125 156.734375 209.835938 156.734375 C 218.089844 156.734375 227.597656 160.410156 233.875 171.09375 C 234.347656 171.898438 235.203125 172.398438 236.136719 172.410156 C 237.070312 172.363281 237.9375 171.949219 238.433594 171.160156 C 246.652344 158.054688 260.351562 155.070312 270.28125 157.9375 C 278.90625 160.421875 288.121094 168.320312 288.121094 183.042969 C 288.121094 209.894531 269.207031 233.304688 236.175781 247.398438 Z M 319.984375 259.71875 C 319.984375 266.269531 316.132812 272.242188 310.171875 274.9375 L 203.402344 323.160156 C 200.25 324.582031 196.882812 325.304688 193.484375 325.304688 C 192.015625 325.304688 190.542969 325.171875 189.082031 324.898438 L 111.828125 310.601562 C 108.625 310.003906 105.390625 310.039062 102.210938 310.699219 L 66.894531 318.101562 C 65.457031 318.441406 64.03125 317.527344 63.707031 316.089844 C 63.378906 314.65625 64.28125 313.226562 65.71875 312.902344 L 69.253906 312.101562 L 101.128906 305.476562 C 104.988281 304.671875 108.917969 304.628906 112.804688 305.359375 L 190.050781 319.65625 C 193.832031 320.351562 197.691406 319.886719 201.210938 318.300781 L 307.976562 270.074219 C 312.03125 268.242188 314.65625 264.175781 314.65625 259.71875 C 314.65625 258.253906 314.378906 256.832031 313.839844 255.496094 C 311.640625 250.070312 305.753906 247.199219 300.144531 248.824219 L 222.488281 271.363281 C 220.332031 279.253906 213.152344 284.648438 205.128906 284.648438 C 204.1875 284.648438 203.242188 284.574219 202.285156 284.421875 L 165.71875 278.605469 C 164.265625 278.375 163.273438 277.007812 163.503906 275.554688 C 163.738281 274.101562 165.101562 273.105469 166.554688 273.335938 L 203.125 279.152344 C 209.765625 280.210938 216.089844 275.886719 217.523438 269.3125 C 218.984375 262.605469 214.925781 256.011719 208.28125 254.300781 L 150.621094 239.460938 C 144.289062 237.828125 137.546875 238.472656 131.636719 241.273438 L 101.414062 255.597656 C 99.328125 256.585938 97.097656 257.160156 94.789062 257.300781 L 66.464844 259.015625 C 64.996094 259.105469 63.734375 257.988281 63.644531 256.515625 C 63.554688 255.046875 64.675781 253.78125 66.144531 253.691406 L 94.464844 251.976562 C 96.089844 251.875 97.664062 251.472656 99.132812 250.777344 L 129.355469 236.453125 C 136.390625 233.121094 144.414062 232.351562 151.953125 234.292969 L 209.609375 249.132812 C 217.433594 251.152344 222.714844 257.9375 223.113281 265.628906 L 298.664062 243.699219 C 306.90625 241.320312 315.550781 245.527344 318.777344 253.492188 C 319.578125 255.464844 319.984375 257.5625 319.984375 259.71875 Z M 319.984375 259.71875 " clip-rule="nonzero"/></clipPath><linearGradient x1="355.960702" gradientTransform="matrix(0.088318, 0, 0, 0.0883716, 13.634755, 2.69983)" y1="525.082508" x2="3475.084126" gradientUnits="userSpaceOnUse" y2="3644.207268" id="id3"><stop stop-opacity="1" stop-color="rgb(25.099182%, 69.799805%, 94.898987%)" offset="0"/><stop stop-opacity="1" stop-color="rgb(25.099182%, 69.799805%, 94.898987%)" offset="0.25"/><stop stop-opacity="1" stop-color="rgb(25.143433%, 69.778442%, 94.863892%)" offset="0.265625"/><stop stop-opacity="1" stop-color="rgb(25.505066%, 69.615173%, 94.587708%)" offset="0.269531"/><stop stop-opacity="1" stop-color="rgb(25.822449%, 69.473267%, 94.346619%)" offset="0.273438"/><stop stop-opacity="1" stop-color="rgb(26.138306%, 69.329834%, 94.104004%)" offset="0.277344"/><stop stop-opacity="1" stop-color="rgb(26.454163%, 69.187927%, 93.862915%)" offset="0.28125"/><stop stop-opacity="1" stop-color="rgb(26.77002%, 69.044495%, 93.6203%)" offset="0.285156"/><stop stop-opacity="1" stop-color="rgb(27.087402%, 68.902588%, 93.379211%)" offset="0.289062"/><stop stop-opacity="1" stop-color="rgb(27.403259%, 68.759155%, 93.136597%)" offset="0.292969"/><stop stop-opacity="1" stop-color="rgb(27.720642%, 68.617249%, 92.895508%)" offset="0.296875"/><stop stop-opacity="1" stop-color="rgb(28.036499%, 68.473816%, 92.652893%)" offset="0.300781"/><stop stop-opacity="1" stop-color="rgb(28.352356%, 68.331909%, 92.411804%)" offset="0.304688"/><stop stop-opacity="1" stop-color="rgb(28.668213%, 68.188477%, 92.169189%)" offset="0.308594"/><stop stop-opacity="1" stop-color="rgb(28.985596%, 68.04657%, 91.928101%)" offset="0.3125"/><stop stop-opacity="1" stop-color="rgb(29.301453%, 67.903137%, 91.685486%)" offset="0.316406"/><stop stop-opacity="1" stop-color="rgb(29.618835%, 67.76123%, 91.444397%)" offset="0.320313"/><stop stop-opacity="1" stop-color="rgb(29.943848%, 67.61322%, 91.192627%)" offset="0.324219"/><stop stop-opacity="1" stop-color="rgb(30.270386%, 67.466736%, 90.940857%)" offset="0.328125"/><stop stop-opacity="1" stop-color="rgb(30.708313%, 67.26532%, 90.579224%)" offset="0.332031"/><stop stop-opacity="1" stop-color="rgb(31.147766%, 67.06543%, 90.219116%)" offset="0.335938"/><stop stop-opacity="1" stop-color="rgb(31.585693%, 66.864014%, 89.859009%)" offset="0.339844"/><stop stop-opacity="1" stop-color="rgb(32.025146%, 66.664124%, 89.498901%)" offset="0.34375"/><stop stop-opacity="1" stop-color="rgb(32.463074%, 66.462708%, 89.137268%)" offset="0.347656"/><stop stop-opacity="1" stop-color="rgb(32.902527%, 66.262817%, 88.777161%)" offset="0.351562"/><stop stop-opacity="1" stop-color="rgb(33.34198%, 66.061401%, 88.417053%)" offset="0.355469"/><stop stop-opacity="1" stop-color="rgb(33.781433%, 65.861511%, 88.056946%)" offset="0.359375"/><stop stop-opacity="1" stop-color="rgb(34.21936%, 65.660095%, 87.695312%)" offset="0.363281"/><stop stop-opacity="1" stop-color="rgb(34.658813%, 65.460205%, 87.335205%)" offset="0.367188"/><stop stop-opacity="1" stop-color="rgb(35.096741%, 65.258789%, 86.973572%)" offset="0.371094"/><stop stop-opacity="1" stop-color="rgb(35.536194%, 65.058899%, 86.613464%)" offset="0.375"/><stop stop-opacity="1" stop-color="rgb(35.974121%, 64.857483%, 86.253357%)" offset="0.378906"/><stop stop-opacity="1" stop-color="rgb(36.413574%, 64.657593%, 85.89325%)" offset="0.382812"/><stop stop-opacity="1" stop-color="rgb(36.851501%, 64.456177%, 85.531616%)" offset="0.386719"/><stop stop-opacity="1" stop-color="rgb(37.290955%, 64.256287%, 85.171509%)" offset="0.390625"/><stop stop-opacity="1" stop-color="rgb(37.728882%, 64.054871%, 84.811401%)" offset="0.394531"/><stop stop-opacity="1" stop-color="rgb(38.168335%, 63.85498%, 84.451294%)" offset="0.398437"/><stop stop-opacity="1" stop-color="rgb(38.606262%, 63.653564%, 84.089661%)" offset="0.402344"/><stop stop-opacity="1" stop-color="rgb(39.045715%, 63.453674%, 83.729553%)" offset="0.40625"/><stop stop-opacity="1" stop-color="rgb(39.483643%, 63.252258%, 83.369446%)" offset="0.410156"/><stop stop-opacity="1" stop-color="rgb(39.923096%, 63.052368%, 83.009338%)" offset="0.414062"/><stop stop-opacity="1" stop-color="rgb(40.361023%, 62.850952%, 82.647705%)" offset="0.417969"/><stop stop-opacity="1" stop-color="rgb(40.800476%, 62.651062%, 82.287598%)" offset="0.421875"/><stop stop-opacity="1" stop-color="rgb(41.238403%, 62.449646%, 81.925964%)" offset="0.425781"/><stop stop-opacity="1" stop-color="rgb(41.677856%, 62.249756%, 81.565857%)" offset="0.429688"/><stop stop-opacity="1" stop-color="rgb(42.11731%, 62.04834%, 81.20575%)" offset="0.433594"/><stop stop-opacity="1" stop-color="rgb(42.556763%, 61.846924%, 80.845642%)" offset="0.4375"/><stop stop-opacity="1" stop-color="rgb(43.031311%, 61.631775%, 80.455017%)" offset="0.441406"/><stop stop-opacity="1" stop-color="rgb(43.507385%, 61.418152%, 80.065918%)" offset="0.445312"/><stop stop-opacity="1" stop-color="rgb(44.041443%, 61.180115%, 79.629517%)" offset="0.449219"/><stop stop-opacity="1" stop-color="rgb(44.577026%, 60.943604%, 79.194641%)" offset="0.453125"/><stop stop-opacity="1" stop-color="rgb(45.111084%, 60.707092%, 78.75824%)" offset="0.457031"/><stop stop-opacity="1" stop-color="rgb(45.645142%, 60.470581%, 78.321838%)" offset="0.460937"/><stop stop-opacity="1" stop-color="rgb(46.179199%, 60.232544%, 77.885437%)" offset="0.464844"/><stop stop-opacity="1" stop-color="rgb(46.714783%, 59.996033%, 77.449036%)" offset="0.46875"/><stop stop-opacity="1" stop-color="rgb(47.24884%, 59.757996%, 77.012634%)" offset="0.472656"/><stop stop-opacity="1" stop-color="rgb(47.784424%, 59.521484%, 76.576233%)" offset="0.476562"/><stop stop-opacity="1" stop-color="rgb(48.318481%, 59.283447%, 76.139832%)" offset="0.480469"/><stop stop-opacity="1" stop-color="rgb(48.854065%, 59.046936%, 75.70343%)" offset="0.484375"/><stop stop-opacity="1" stop-color="rgb(49.388123%, 58.810425%, 75.267029%)" offset="0.488281"/><stop stop-opacity="1" stop-color="rgb(49.923706%, 58.573914%, 74.830627%)" offset="0.492188"/><stop stop-opacity="1" stop-color="rgb(50.457764%, 58.335876%, 74.394226%)" offset="0.496094"/><stop stop-opacity="1" stop-color="rgb(50.993347%, 58.099365%, 73.957825%)" offset="0.5"/><stop stop-opacity="1" stop-color="rgb(51.527405%, 57.861328%, 73.521423%)" offset="0.503906"/><stop stop-opacity="1" stop-color="rgb(52.062988%, 57.624817%, 73.085022%)" offset="0.507812"/><stop stop-opacity="1" stop-color="rgb(52.597046%, 57.38678%, 72.648621%)" offset="0.511719"/><stop stop-opacity="1" stop-color="rgb(53.132629%, 57.150269%, 72.212219%)" offset="0.515625"/><stop stop-opacity="1" stop-color="rgb(53.666687%, 56.912231%, 71.775818%)" offset="0.519531"/><stop stop-opacity="1" stop-color="rgb(54.202271%, 56.67572%, 71.339417%)" offset="0.523438"/><stop stop-opacity="1" stop-color="rgb(54.736328%, 56.439209%, 70.903015%)" offset="0.527344"/><stop stop-opacity="1" stop-color="rgb(55.271912%, 56.202698%, 70.466614%)" offset="0.53125"/><stop stop-opacity="1" stop-color="rgb(55.805969%, 55.964661%, 70.030212%)" offset="0.535156"/><stop stop-opacity="1" stop-color="rgb(56.341553%, 55.728149%, 69.593811%)" offset="0.539062"/><stop stop-opacity="1" stop-color="rgb(56.87561%, 55.490112%, 69.15741%)" offset="0.542969"/><stop stop-opacity="1" stop-color="rgb(57.411194%, 55.253601%, 68.721008%)" offset="0.546875"/><stop stop-opacity="1" stop-color="rgb(57.945251%, 55.015564%, 68.284607%)" offset="0.550781"/><stop stop-opacity="1" stop-color="rgb(58.480835%, 54.779053%, 67.848206%)" offset="0.554688"/><stop stop-opacity="1" stop-color="rgb(59.014893%, 54.541016%, 67.411804%)" offset="0.558594"/><stop stop-opacity="1" stop-color="rgb(59.550476%, 54.304504%, 66.975403%)" offset="0.5625"/><stop stop-opacity="1" stop-color="rgb(60.084534%, 54.067993%, 66.539001%)" offset="0.566406"/><stop stop-opacity="1" stop-color="rgb(60.618591%, 53.831482%, 66.1026%)" offset="0.570312"/><stop stop-opacity="1" stop-color="rgb(61.152649%, 53.593445%, 65.666199%)" offset="0.574219"/><stop stop-opacity="1" stop-color="rgb(61.688232%, 53.356934%, 65.229797%)" offset="0.578125"/><stop stop-opacity="1" stop-color="rgb(62.22229%, 53.118896%, 64.793396%)" offset="0.582031"/><stop stop-opacity="1" stop-color="rgb(62.757874%, 52.882385%, 64.356995%)" offset="0.585938"/><stop stop-opacity="1" stop-color="rgb(63.291931%, 52.644348%, 63.920593%)" offset="0.589844"/><stop stop-opacity="1" stop-color="rgb(63.827515%, 52.407837%, 63.484192%)" offset="0.59375"/><stop stop-opacity="1" stop-color="rgb(64.399719%, 52.145386%, 63.015747%)" offset="0.597656"/><stop stop-opacity="1" stop-color="rgb(64.971924%, 51.88446%, 62.547302%)" offset="0.601562"/><stop stop-opacity="1" stop-color="rgb(65.571594%, 51.602173%, 62.052917%)" offset="0.605469"/><stop stop-opacity="1" stop-color="rgb(66.172791%, 51.321411%, 61.560059%)" offset="0.609375"/><stop stop-opacity="1" stop-color="rgb(66.772461%, 51.039124%, 61.065674%)" offset="0.613281"/><stop stop-opacity="1" stop-color="rgb(67.373657%, 50.758362%, 60.572815%)" offset="0.617188"/><stop stop-opacity="1" stop-color="rgb(67.974854%, 50.476074%, 60.07843%)" offset="0.621094"/><stop stop-opacity="1" stop-color="rgb(68.57605%, 50.195312%, 59.585571%)" offset="0.625"/><stop stop-opacity="1" stop-color="rgb(69.17572%, 49.913025%, 59.091187%)" offset="0.628906"/><stop stop-opacity="1" stop-color="rgb(69.776917%, 49.632263%, 58.598328%)" offset="0.632812"/><stop stop-opacity="1" stop-color="rgb(70.376587%, 49.349976%, 58.103943%)" offset="0.636719"/><stop stop-opacity="1" stop-color="rgb(70.977783%, 49.069214%, 57.611084%)" offset="0.640625"/><stop stop-opacity="1" stop-color="rgb(71.578979%, 48.788452%, 57.116699%)" offset="0.644531"/><stop stop-opacity="1" stop-color="rgb(72.180176%, 48.50769%, 56.62384%)" offset="0.648437"/><stop stop-opacity="1" stop-color="rgb(72.779846%, 48.225403%, 56.129456%)" offset="0.652344"/><stop stop-opacity="1" stop-color="rgb(73.381042%, 47.944641%, 55.636597%)" offset="0.65625"/><stop stop-opacity="1" stop-color="rgb(73.980713%, 47.662354%, 55.142212%)" offset="0.660156"/><stop stop-opacity="1" stop-color="rgb(74.581909%, 47.381592%, 54.649353%)" offset="0.664062"/><stop stop-opacity="1" stop-color="rgb(75.183105%, 47.099304%, 54.154968%)" offset="0.667969"/><stop stop-opacity="1" stop-color="rgb(75.784302%, 46.818542%, 53.662109%)" offset="0.671875"/><stop stop-opacity="1" stop-color="rgb(76.383972%, 46.536255%, 53.167725%)" offset="0.675781"/><stop stop-opacity="1" stop-color="rgb(76.985168%, 46.255493%, 52.674866%)" offset="0.679687"/><stop stop-opacity="1" stop-color="rgb(77.586365%, 45.973206%, 52.180481%)" offset="0.683594"/><stop stop-opacity="1" stop-color="rgb(78.187561%, 45.692444%, 51.687622%)" offset="0.6875"/><stop stop-opacity="1" stop-color="rgb(78.787231%, 45.410156%, 51.193237%)" offset="0.691406"/><stop stop-opacity="1" stop-color="rgb(79.388428%, 45.129395%, 50.700378%)" offset="0.695312"/><stop stop-opacity="1" stop-color="rgb(79.988098%, 44.847107%, 50.205994%)" offset="0.699219"/><stop stop-opacity="1" stop-color="rgb(80.589294%, 44.566345%, 49.713135%)" offset="0.703125"/><stop stop-opacity="1" stop-color="rgb(81.190491%, 44.284058%, 49.21875%)" offset="0.707031"/><stop stop-opacity="1" stop-color="rgb(81.791687%, 44.003296%, 48.725891%)" offset="0.710938"/><stop stop-opacity="1" stop-color="rgb(82.391357%, 43.721008%, 48.231506%)" offset="0.714844"/><stop stop-opacity="1" stop-color="rgb(82.992554%, 43.440247%, 47.738647%)" offset="0.71875"/><stop stop-opacity="1" stop-color="rgb(83.592224%, 43.157959%, 47.244263%)" offset="0.722656"/><stop stop-opacity="1" stop-color="rgb(84.19342%, 42.877197%, 46.751404%)" offset="0.726562"/><stop stop-opacity="1" stop-color="rgb(84.794617%, 42.596436%, 46.257019%)" offset="0.730469"/><stop stop-opacity="1" stop-color="rgb(85.395813%, 42.315674%, 45.76416%)" offset="0.734375"/><stop stop-opacity="1" stop-color="rgb(85.995483%, 42.033386%, 45.271301%)" offset="0.738281"/><stop stop-opacity="1" stop-color="rgb(86.59668%, 41.752625%, 44.778442%)" offset="0.742188"/><stop stop-opacity="1" stop-color="rgb(87.197876%, 41.470337%, 44.284058%)" offset="0.746094"/><stop stop-opacity="1" stop-color="rgb(87.799072%, 41.189575%, 43.791199%)" offset="0.75"/><stop stop-opacity="1" stop-color="rgb(88.398743%, 40.907288%, 43.296814%)" offset="0.753906"/><stop stop-opacity="1" stop-color="rgb(88.999939%, 40.626526%, 42.803955%)" offset="0.757812"/><stop stop-opacity="1" stop-color="rgb(89.599609%, 40.344238%, 42.30957%)" offset="0.761719"/><stop stop-opacity="1" stop-color="rgb(90.200806%, 40.063477%, 41.816711%)" offset="0.765625"/><stop stop-opacity="1" stop-color="rgb(90.802002%, 39.781189%, 41.322327%)" offset="0.769531"/><stop stop-opacity="1" stop-color="rgb(91.403198%, 39.500427%, 40.829468%)" offset="0.773437"/><stop stop-opacity="1" stop-color="rgb(92.002869%, 39.21814%, 40.335083%)" offset="0.777344"/><stop stop-opacity="1" stop-color="rgb(92.604065%, 38.937378%, 39.842224%)" offset="0.78125"/><stop stop-opacity="1" stop-color="rgb(93.281555%, 38.65509%, 39.295959%)" offset="0.785156"/><stop stop-opacity="1" stop-color="rgb(93.959045%, 38.374329%, 38.751221%)" offset="0.789062"/><stop stop-opacity="1" stop-color="rgb(94.429016%, 38.186646%, 38.374329%)" offset="0.792969"/><stop stop-opacity="1" stop-color="rgb(94.898987%, 37.998962%, 37.998962%)" offset="0.796875"/><stop stop-opacity="1" stop-color="rgb(94.898987%, 37.998962%, 37.998962%)" offset="0.8125"/><stop stop-opacity="1" stop-color="rgb(94.898987%, 37.998962%, 37.998962%)" offset="0.875"/><stop stop-opacity="1" stop-color="rgb(94.898987%, 37.998962%, 37.998962%)" offset="1"/></linearGradient></defs><rect x="-37.5" width="450" fill="#ffffff" y="-37.499999" height="449.999989" fill-opacity="1"/><rect x="-37.5" width="450" fill="#ffffff" y="-37.499999" height="449.999989" fill-opacity="1"/><rect x="-37.5" width="450" fill="#ffffff" y="-37.499999" height="449.999989" fill-opacity="1"/><rect x="-37.5" width="450" fill="#ffffff" y="-37.499999" height="449.999989" fill-opacity="1"/><path fill="#ffffff" d="M 187.5 0 C 83.945312 0 0 83.945312 0 187.5 C 0 291.054688 83.945312 375 187.5 375 C 291.054688 375 375 291.054688 375 187.5 C 375 83.945312 291.054688 0 187.5 0 " fill-opacity="1" fill-rule="nonzero"/><g clip-path="url(#id1)"><g clip-path="url(#id2)"><path fill="url(#id3)" d="M 60.605469 33.558594 L 60.605469 325.304688 L 319.984375 325.304688 L 319.984375 33.558594 Z M 60.605469 33.558594 " fill-rule="nonzero"/></g></g></svg>