<svg xmlns="http://www.w3.org/2000/svg" xmlns:xlink="http://www.w3.org/1999/xlink" width="500" zoomAndPan="magnify" viewBox="0 0 375 374.999991" height="500" preserveAspectRatio="xMidYMid meet" version="1.0"><defs><clipPath id="id1"><path d="M 15.328125 15.328125 L 359.578125 15.328125 L 359.578125 359.578125 L 15.328125 359.578125 Z M 15.328125 15.328125 " clip-rule="nonzero"/></clipPath></defs><g clip-path="url(#id1)"><path fill="#100f0d" d="M 325.148438 235.710938 L 286.46875 193.125 C 279.519531 185.476562 268.046875 184.382812 259.78125 190.582031 L 259.484375 190.800781 C 254.941406 194.210938 252.078125 199.183594 251.425781 204.800781 C 250.773438 210.390625 252.402344 215.855469 256.011719 220.183594 C 261.742188 227.046875 268.527344 235.183594 272.1875 239.574219 C 273.042969 240.597656 273.515625 241.90625 273.515625 243.246094 L 273.515625 245.808594 C 273.515625 257.808594 278.1875 269.089844 286.671875 277.570312 C 288.902344 279.804688 290.773438 282.304688 292.269531 284.988281 L 227.613281 284.988281 C 213.914062 284.988281 201.609375 291.03125 193.191406 300.578125 L 193.191406 44.015625 C 193.191406 34.523438 200.910156 26.800781 210.402344 26.800781 L 319.414062 26.800781 C 322.578125 26.800781 325.152344 29.375 325.152344 32.539062 Z M 296.125 296.464844 C 296.347656 298.023438 296.464844 299.613281 296.464844 301.21875 L 296.464844 313.675781 L 233.351562 313.675781 C 217.535156 313.675781 204.664062 326.546875 204.664062 342.363281 C 204.664062 345.527344 202.089844 348.101562 198.925781 348.101562 L 175.976562 348.101562 C 172.8125 348.101562 170.238281 345.527344 170.238281 342.363281 C 170.238281 326.546875 157.371094 313.675781 141.550781 313.675781 L 78.441406 313.675781 L 78.441406 301.21875 C 78.441406 299.613281 78.558594 298.023438 78.777344 296.464844 L 147.289062 296.464844 C 166.273438 296.464844 181.714844 311.90625 181.714844 330.890625 L 193.191406 330.890625 C 193.191406 311.90625 208.632812 296.464844 227.613281 296.464844 Z M 88.234375 277.570312 C 96.714844 269.089844 101.390625 257.808594 101.390625 245.808594 L 101.390625 243.246094 C 101.390625 241.90625 101.859375 240.597656 102.71875 239.574219 C 106.375 235.183594 113.160156 227.046875 118.890625 220.183594 C 122.5 215.855469 124.128906 210.390625 123.480469 204.800781 C 122.828125 199.183594 119.964844 194.210938 115.414062 190.800781 L 115.128906 190.585938 C 106.859375 184.382812 95.382812 185.472656 88.433594 193.125 L 49.753906 235.707031 L 49.753906 32.539062 C 49.753906 29.375 52.328125 26.800781 55.488281 26.800781 L 164.503906 26.800781 C 173.992188 26.800781 181.714844 34.523438 181.714844 44.015625 L 181.714844 300.558594 C 173.300781 291.019531 160.984375 284.988281 147.289062 284.988281 L 82.632812 284.988281 C 84.128906 282.304688 86 279.804688 88.234375 277.570312 Z M 348.101562 153.027344 L 336.628906 144.421875 L 336.628906 32.539062 C 336.628906 23.046875 328.90625 15.328125 319.414062 15.328125 L 210.402344 15.328125 C 201.027344 15.328125 192.691406 19.847656 187.453125 26.820312 C 182.214844 19.847656 173.875 15.328125 164.503906 15.328125 L 55.488281 15.328125 C 46 15.328125 38.277344 23.046875 38.277344 32.539062 L 38.277344 144.421875 L 26.800781 153.027344 C 19.617188 158.417969 15.328125 166.996094 15.328125 175.976562 L 15.328125 359.578125 L 26.800781 359.578125 L 26.800781 175.976562 C 26.800781 170.585938 29.375 165.441406 33.683594 162.207031 L 38.277344 158.765625 L 38.277344 235.714844 C 38.277344 240.496094 41.15625 244.695312 45.617188 246.417969 C 50.074219 248.140625 55.03125 246.96875 58.246094 243.429688 L 96.929688 200.84375 C 99.875 197.597656 104.738281 197.132812 108.246094 199.765625 L 108.535156 199.984375 C 110.535156 201.480469 111.792969 203.664062 112.082031 206.125 C 112.367188 208.5625 111.65625 210.941406 110.078125 212.828125 C 104.351562 219.695312 97.5625 227.835938 93.902344 232.226562 C 91.332031 235.3125 89.914062 239.222656 89.914062 243.246094 L 89.914062 245.808594 C 89.914062 254.746094 86.433594 263.140625 80.121094 269.457031 C 71.636719 277.941406 66.964844 289.21875 66.964844 301.21875 L 66.964844 359.578125 L 78.441406 359.578125 L 78.441406 325.152344 L 141.550781 325.152344 C 151.042969 325.152344 158.765625 332.871094 158.765625 342.363281 C 158.765625 351.855469 166.484375 359.578125 175.976562 359.578125 L 198.925781 359.578125 C 208.417969 359.578125 216.140625 351.855469 216.140625 342.363281 C 216.140625 332.871094 223.859375 325.152344 233.351562 325.152344 L 296.464844 325.152344 L 296.464844 359.578125 L 307.941406 359.578125 L 307.941406 301.21875 C 307.941406 289.21875 303.265625 277.941406 294.785156 269.457031 C 288.46875 263.140625 284.988281 254.746094 284.988281 245.808594 L 284.988281 243.246094 C 284.988281 239.222656 283.570312 235.3125 281 232.226562 C 277.339844 227.835938 270.554688 219.695312 264.824219 212.828125 C 263.25 210.941406 262.539062 208.5625 262.824219 206.125 C 263.109375 203.664062 264.367188 201.480469 266.363281 199.984375 L 266.660156 199.765625 C 270.164062 197.132812 275.03125 197.597656 277.972656 200.84375 L 316.65625 243.429688 C 319.871094 246.96875 324.828125 248.136719 329.285156 246.417969 C 333.746094 244.695312 336.628906 240.496094 336.628906 235.714844 L 336.628906 158.765625 L 341.214844 162.207031 C 345.527344 165.441406 348.101562 170.585938 348.101562 175.976562 L 348.101562 359.578125 L 359.578125 359.578125 L 359.578125 175.976562 C 359.578125 166.996094 355.289062 158.417969 348.101562 153.027344 " fill-opacity="1" fill-rule="nonzero"/></g><path fill="#100f0d" d="M 164.503906 49.753906 L 61.226562 49.753906 L 61.226562 61.226562 L 164.503906 61.226562 L 164.503906 49.753906 " fill-opacity="1" fill-rule="nonzero"/><path fill="#100f0d" d="M 164.503906 78.441406 L 61.226562 78.441406 L 61.226562 89.914062 L 164.503906 89.914062 L 164.503906 78.441406 " fill-opacity="1" fill-rule="nonzero"/><path fill="#100f0d" d="M 164.503906 107.128906 L 61.226562 107.128906 L 61.226562 118.601562 L 164.503906 118.601562 L 164.503906 107.128906 " fill-opacity="1" fill-rule="nonzero"/><path fill="#100f0d" d="M 164.503906 135.816406 L 61.226562 135.816406 L 61.226562 147.289062 L 164.503906 147.289062 L 164.503906 135.816406 " fill-opacity="1" fill-rule="nonzero"/><path fill="#100f0d" d="M 164.503906 164.503906 L 61.226562 164.503906 L 61.226562 175.976562 L 164.503906 175.976562 L 164.503906 164.503906 " fill-opacity="1" fill-rule="nonzero"/><path fill="#100f0d" d="M 135.816406 204.664062 L 164.503906 204.664062 L 164.503906 193.191406 L 135.816406 193.191406 L 135.816406 204.664062 " fill-opacity="1" fill-rule="nonzero"/><path fill="#100f0d" d="M 130.078125 233.351562 L 164.503906 233.351562 L 164.503906 221.878906 L 130.078125 221.878906 L 130.078125 233.351562 " fill-opacity="1" fill-rule="nonzero"/><path fill="#100f0d" d="M 164.503906 250.566406 L 112.863281 250.566406 L 112.863281 262.039062 L 164.503906 262.039062 L 164.503906 250.566406 " fill-opacity="1" fill-rule="nonzero"/><path fill="#100f0d" d="M 221.878906 61.226562 L 302.203125 61.226562 L 302.203125 107.128906 L 221.878906 107.128906 Z M 210.402344 118.601562 L 313.675781 118.601562 L 313.675781 49.753906 L 210.402344 49.753906 L 210.402344 118.601562 " fill-opacity="1" fill-rule="nonzero"/><path fill="#100f0d" d="M 210.402344 147.289062 L 313.675781 147.289062 L 313.675781 135.816406 L 210.402344 135.816406 L 210.402344 147.289062 " fill-opacity="1" fill-rule="nonzero"/><path fill="#100f0d" d="M 210.402344 175.976562 L 313.675781 175.976562 L 313.675781 164.503906 L 210.402344 164.503906 L 210.402344 175.976562 " fill-opacity="1" fill-rule="nonzero"/><path fill="#100f0d" d="M 239.089844 193.191406 L 210.402344 193.191406 L 210.402344 204.664062 L 239.089844 204.664062 L 239.089844 193.191406 " fill-opacity="1" fill-rule="nonzero"/><path fill="#100f0d" d="M 244.828125 221.878906 L 210.402344 221.878906 L 210.402344 233.351562 L 244.828125 233.351562 L 244.828125 221.878906 " fill-opacity="1" fill-rule="nonzero"/><path fill="#100f0d" d="M 210.402344 262.039062 L 262.039062 262.039062 L 262.039062 250.566406 L 210.402344 250.566406 L 210.402344 262.039062 " fill-opacity="1" fill-rule="nonzero"/></svg>