<svg xmlns="http://www.w3.org/2000/svg" xmlns:xlink="http://www.w3.org/1999/xlink" width="500" zoomAndPan="magnify" viewBox="0 0 375 374.999991" height="500" preserveAspectRatio="xMidYMid meet" version="1.0"><defs><clipPath id="id1"><path d="M 10.003906 10.382812 L 364.699219 10.382812 L 364.699219 364.394531 L 10.003906 364.394531 Z M 10.003906 10.382812 " clip-rule="nonzero"/></clipPath></defs><g clip-path="url(#id1)"><path fill="#000000" d="M 362.277344 157.6875 C 353.761719 106.601562 323.324219 61.902344 278.757812 35.046875 C 276.347656 33.589844 273.214844 34.371094 271.765625 36.78125 C 270.308594 39.1875 271.089844 42.324219 273.496094 43.773438 C 315.503906 69.089844 344.199219 111.21875 352.222656 159.363281 C 353.734375 168.449219 354.5 177.761719 354.5 187.050781 C 354.5 226.648438 340.40625 265.050781 314.816406 295.1875 C 294.996094 318.523438 269.261719 335.960938 240.386719 345.617188 C 237.714844 346.507812 236.273438 349.394531 237.167969 352.066406 C 237.882812 354.195312 239.871094 355.546875 242 355.546875 C 242.535156 355.546875 243.078125 355.460938 243.617188 355.28125 C 274.257812 345.039062 301.5625 326.542969 322.585938 301.789062 C 349.738281 269.808594 364.695312 229.0625 364.695312 187.050781 C 364.695312 177.207031 363.882812 167.324219 362.277344 157.6875 Z M 187.351562 354.203125 C 95.175781 354.203125 20.195312 279.21875 20.195312 187.050781 C 20.195312 172.632812 22.03125 158.316406 25.65625 144.503906 C 26.375 141.78125 24.746094 138.992188 22.019531 138.277344 C 19.300781 137.570312 16.511719 139.191406 15.796875 141.914062 C 11.953125 156.574219 10.003906 171.761719 10.003906 187.050781 C 10.003906 284.839844 89.558594 364.394531 187.351562 364.394531 C 190.164062 364.394531 192.449219 362.109375 192.449219 359.296875 C 192.449219 356.480469 190.164062 354.203125 187.351562 354.203125 Z M 30.742188 115.042969 C 31.476562 115.398438 32.246094 115.574219 33.007812 115.574219 C 34.886719 115.574219 36.6875 114.535156 37.578125 112.742188 C 55.300781 77.089844 85.207031 48.855469 121.789062 33.242188 C 124.375 32.136719 125.582031 29.144531 124.476562 26.554688 C 123.371094 23.964844 120.375 22.757812 117.785156 23.867188 C 78.980469 40.429688 47.25 70.382812 28.449219 108.207031 C 27.195312 110.726562 28.226562 113.789062 30.742188 115.042969 Z M 252.644531 58.09375 C 301.503906 82.886719 331.859375 132.300781 331.859375 187.050781 C 331.859375 202.167969 329.539062 217.0625 324.953125 231.3125 C 324.09375 233.988281 325.566406 236.863281 328.25 237.722656 C 328.769531 237.890625 329.296875 237.964844 329.8125 237.964844 C 331.964844 237.964844 333.964844 236.59375 334.660156 234.425781 C 339.570312 219.171875 342.050781 203.230469 342.050781 187.050781 C 342.050781 128.441406 309.558594 75.546875 257.253906 49.003906 C 254.746094 47.734375 251.675781 48.730469 250.402344 51.246094 C 249.132812 53.753906 250.132812 56.820312 252.644531 58.09375 Z M 103.667969 143.90625 C 103.667969 159.53125 116.375 172.238281 132 172.238281 C 147.625 172.238281 160.332031 159.53125 160.332031 143.90625 C 160.332031 128.28125 147.625 115.574219 132 115.574219 C 116.375 115.574219 103.667969 128.28125 103.667969 143.90625 Z M 132 105.378906 C 153.246094 105.378906 170.527344 122.664062 170.527344 143.90625 C 170.527344 165.152344 153.246094 182.433594 132 182.433594 C 110.757812 182.433594 93.476562 165.152344 93.476562 143.90625 C 93.476562 122.664062 110.757812 105.378906 132 105.378906 Z M 207.96875 224.183594 C 207.96875 219.167969 206.160156 214.5625 203.167969 210.984375 C 203.019531 210.84375 202.894531 210.695312 202.765625 210.539062 C 198.988281 206.273438 193.484375 203.566406 187.351562 203.566406 C 181.214844 203.566406 175.714844 206.273438 171.929688 210.539062 C 171.804688 210.695312 171.675781 210.84375 171.527344 210.984375 C 168.535156 214.5625 166.730469 219.167969 166.730469 224.183594 C 166.730469 235.550781 175.984375 244.800781 187.351562 244.800781 C 198.71875 244.800781 207.96875 235.550781 207.96875 224.183594 Z M 157.34375 328.375 C 167.128906 330.46875 177.183594 331.558594 187.351562 331.558594 C 197.519531 331.558594 207.566406 330.488281 217.359375 328.417969 L 210.894531 273.53125 C 210.046875 268.503906 206.085938 266.984375 203.136719 266.5625 L 192 291.488281 C 191.183594 293.332031 189.363281 294.511719 187.351562 294.511719 C 185.339844 294.511719 183.511719 293.332031 182.691406 291.488281 L 171.558594 266.5625 C 168.617188 266.984375 164.644531 268.503906 163.800781 273.53125 Z M 212.730469 206.746094 C 216.152344 211.707031 218.164062 217.71875 218.164062 224.183594 C 218.164062 241.171875 204.339844 254.996094 187.351562 254.996094 C 170.359375 254.996094 156.535156 241.171875 156.535156 224.183594 C 156.535156 217.71875 158.546875 211.707031 161.964844 206.746094 C 158.570312 202.097656 152.480469 201.53125 149.742188 201.53125 L 149.703125 201.53125 L 136.519531 226.773438 C 135.640625 228.453125 133.898438 229.511719 132 229.511719 C 130.105469 229.511719 128.363281 228.453125 127.480469 226.773438 L 114.300781 201.53125 L 114.261719 201.53125 C 111.289062 201.53125 101.5 202.296875 99.875 212.109375 L 90.199219 293.980469 C 106.597656 308.828125 126.207031 319.726562 147.371094 325.855469 L 153.691406 272.222656 C 153.703125 272.15625 153.707031 272.085938 153.722656 272.023438 C 155.246094 262.417969 163.089844 256.210938 173.703125 256.210938 L 200.996094 256.210938 C 211.605469 256.210938 219.453125 262.417969 220.972656 272.023438 C 220.984375 272.085938 220.996094 272.15625 221.003906 272.222656 L 227.335938 325.933594 C 241.351562 321.90625 254.730469 315.773438 267.050781 307.617188 C 269.394531 306.058594 272.5625 306.703125 274.113281 309.050781 C 275.667969 311.394531 275.027344 314.5625 272.679688 316.113281 C 247.355469 332.886719 217.847656 341.753906 187.351562 341.753906 C 138.21875 341.753906 91.535156 318.066406 62.464844 278.378906 C 42.953125 251.746094 32.644531 220.164062 32.644531 187.050781 C 32.644531 147.785156 47.375 110.34375 74.121094 81.628906 C 76.039062 79.566406 79.265625 79.453125 81.324219 81.375 C 83.386719 83.289062 83.5 86.515625 81.578125 88.578125 C 56.597656 115.398438 42.839844 150.371094 42.839844 187.050781 C 42.839844 217.980469 52.46875 247.480469 70.6875 272.355469 C 73.902344 276.746094 77.359375 280.917969 81.011719 284.875 L 89.765625 210.800781 C 89.777344 210.734375 89.785156 210.664062 89.796875 210.601562 C 91.660156 198.898438 101.253906 191.335938 114.261719 191.335938 L 149.742188 191.335938 C 157.84375 191.335938 164.683594 194.253906 169.113281 199.371094 C 174.226562 195.601562 180.527344 193.375 187.351562 193.375 C 194.164062 193.375 200.476562 195.601562 205.582031 199.371094 C 210.015625 194.253906 216.851562 191.335938 224.957031 191.335938 L 260.4375 191.335938 C 273.4375 191.335938 283.039062 198.898438 284.902344 210.601562 C 284.910156 210.664062 284.921875 210.734375 284.929688 210.800781 L 293.6875 284.878906 C 301.671875 276.214844 308.5625 266.640625 314.222656 256.292969 C 315.578125 253.824219 318.667969 252.917969 321.140625 254.269531 C 323.609375 255.617188 324.515625 258.714844 323.167969 261.183594 C 315.34375 275.492188 305.339844 288.429688 293.441406 299.648438 C 292.457031 300.574219 291.199219 301.035156 289.941406 301.035156 C 288.75 301.035156 287.558594 300.589844 286.609375 299.753906 C 286.535156 299.691406 286.464844 299.632812 286.390625 299.570312 C 286.339844 299.519531 286.285156 299.484375 286.234375 299.433594 C 286.183594 299.382812 286.15625 299.324219 286.109375 299.273438 C 285.410156 298.507812 284.914062 297.542969 284.785156 296.433594 L 274.816406 212.109375 C 273.199219 202.296875 263.40625 201.53125 260.4375 201.53125 L 260.394531 201.53125 L 247.214844 226.773438 C 246.335938 228.453125 244.59375 229.511719 242.695312 229.511719 C 240.800781 229.511719 239.058594 228.453125 238.175781 226.773438 L 224.996094 201.53125 L 224.957031 201.53125 C 222.222656 201.53125 216.125 202.097656 212.730469 206.746094 Z M 214.363281 143.90625 C 214.363281 159.53125 227.078125 172.238281 242.695312 172.238281 C 258.316406 172.238281 271.027344 159.53125 271.027344 143.90625 C 271.027344 128.28125 258.316406 115.574219 242.695312 115.574219 C 227.078125 115.574219 214.363281 128.28125 214.363281 143.90625 Z M 242.695312 105.378906 C 263.941406 105.378906 281.222656 122.664062 281.222656 143.90625 C 281.222656 165.152344 263.941406 182.433594 242.695312 182.433594 C 221.453125 182.433594 204.171875 165.152344 204.171875 143.90625 C 204.171875 122.664062 221.453125 105.378906 242.695312 105.378906 Z M 143.339844 35.546875 C 143.339844 16.976562 155.191406 10.378906 165.34375 10.378906 C 176.148438 10.378906 183.179688 19.339844 187.351562 27.492188 C 191.515625 19.339844 198.554688 10.378906 209.351562 10.378906 C 223.132812 10.378906 231.359375 19.3125 231.359375 34.273438 C 231.359375 58.898438 194.300781 83.050781 190.074219 85.722656 C 189.242188 86.25 188.296875 86.515625 187.351562 86.515625 C 186.441406 86.515625 185.535156 86.273438 184.726562 85.789062 C 180.492188 83.25 143.339844 60.253906 143.339844 35.546875 " fill-opacity="1" fill-rule="nonzero"/></g></svg>