<svg xmlns="http://www.w3.org/2000/svg" xmlns:xlink="http://www.w3.org/1999/xlink" width="500" zoomAndPan="magnify" viewBox="0 0 375 374.999991" height="500" preserveAspectRatio="xMidYMid meet" version="1.0"><defs><clipPath id="id1"><path d="M 43.773438 160 L 165 160 L 165 362 L 43.773438 362 Z M 43.773438 160 " clip-rule="nonzero"/></clipPath></defs><path fill="#000000" d="M 315.976562 160.050781 C 307.691406 160.050781 300.953125 166.757812 300.953125 174.984375 L 300.953125 233.011719 C 308.882812 236.632812 313.683594 243.960938 313.683594 251.9375 C 313.683594 257.242188 311.566406 262.300781 307.691406 266.210938 L 276.902344 299.984375 C 275.476562 301.757812 273.570312 304.515625 272.613281 307.589844 C 272.089844 309.234375 271.933594 310.996094 271.882812 313.199219 L 262.132812 313.199219 C 262.179688 310.117188 262.429688 307.414062 263.332031 304.660156 C 264.984375 299.332031 268.308594 294.988281 270.269531 292.683594 L 300.589844 260.203125 C 302.429688 258.035156 303.433594 255.277344 303.433594 252.445312 C 303.433594 245.875 298.082031 240.535156 291.511719 240.535156 C 288.398438 240.535156 285.457031 241.714844 283.222656 243.875 L 220.34375 307.007812 C 209.472656 318.390625 210.183594 329.988281 210.183594 338.671875 L 210.246094 361.464844 L 264.175781 361.464844 L 264.175781 351.886719 C 264.175781 345.675781 265.386719 341.570312 270.296875 336.945312 L 319.851562 284.332031 C 326.945312 276.035156 330.90625 265.425781 330.90625 254.441406 L 330.90625 174.984375 C 330.910156 166.757812 324.222656 160.050781 315.976562 160.050781 Z M 315.976562 160.050781 " fill-opacity="1" fill-rule="nonzero"/><g clip-path="url(#id1)"><path fill="#000000" d="M 91.46875 243.878906 C 89.222656 241.726562 86.285156 240.546875 83.175781 240.546875 C 76.601562 240.546875 71.242188 245.882812 71.242188 252.449219 C 71.242188 255.289062 72.246094 258.046875 74.085938 260.210938 L 104.414062 292.695312 C 106.375 294.996094 109.699219 299.332031 111.355469 304.660156 C 112.246094 307.417969 112.5 310.117188 112.554688 313.203125 L 102.789062 313.203125 C 102.753906 310.996094 102.589844 309.230469 102.066406 307.589844 C 101.113281 304.515625 99.210938 301.761719 97.777344 300 L 66.988281 266.210938 C 63.109375 262.300781 60.996094 257.242188 60.996094 251.9375 C 60.996094 243.960938 65.785156 236.632812 73.726562 233.011719 L 73.726562 174.984375 C 73.726562 166.757812 66.984375 160.050781 58.699219 160.050781 C 50.453125 160.050781 43.769531 166.757812 43.769531 174.984375 L 43.769531 254.441406 C 43.769531 265.425781 47.722656 276.035156 54.816406 284.332031 L 104.378906 336.941406 C 109.292969 341.574219 110.496094 345.675781 110.496094 351.886719 L 110.496094 361.464844 L 164.433594 361.464844 L 164.496094 338.671875 C 164.496094 329.988281 165.207031 318.390625 154.339844 307.007812 Z M 91.46875 243.878906 " fill-opacity="1" fill-rule="nonzero"/></g><path fill="#000000" d="M 120.390625 70.027344 C 128.550781 76.753906 141.261719 74.808594 141.261719 74.808594 C 141.261719 74.808594 140.738281 61.96875 132.574219 55.242188 C 124.414062 48.515625 111.699219 50.445312 111.699219 50.445312 C 111.699219 50.445312 112.226562 63.300781 120.390625 70.027344 Z M 120.390625 70.027344 " fill-opacity="1" fill-rule="nonzero"/><path fill="#000000" d="M 283.132812 97.757812 L 262.519531 97.757812 L 262.519531 89.808594 C 262.519531 83.9375 260.308594 78.457031 257.695312 73.304688 C 256.230469 70.421875 254.609375 67.621094 253.179688 64.71875 C 252.164062 62.644531 251.199219 60.429688 250.796875 58.132812 C 252.144531 57.269531 252.636719 55.429688 252.363281 53.835938 C 252.046875 52 250.308594 51.042969 248.609375 51.042969 L 236 51.042969 C 234.300781 51.042969 232.703125 51.773438 232.179688 53.558594 C 231.699219 55.199219 232.234375 57.210938 233.671875 58.132812 C 233.007812 62.152344 230.703125 65.933594 228.804688 69.449219 C 226.320312 74.074219 223.824219 78.789062 222.625 83.929688 C 221.632812 88.195312 221.945312 92.753906 221.945312 97.105469 L 221.945312 97.761719 L 206.550781 97.761719 C 202.328125 93.324219 197.613281 89.238281 192.886719 86.515625 C 191.820312 85.894531 191.496094 84.992188 191.636719 84.128906 C 191.941406 82.363281 194.152344 80.75 196.273438 81.960938 C 201.804688 85.15625 207.136719 88.777344 211.816406 92.992188 C 211.816406 92.996094 212.371094 89.0625 211.648438 85.167969 C 210.867188 81.015625 209.011719 77.96875 209.011719 77.96875 C 203.433594 70.371094 195.445312 61.886719 187.425781 57.285156 C 184.242188 55.457031 187.636719 50.910156 190.820312 52.738281 C 196.339844 55.914062 201.660156 59.539062 206.339844 63.742188 C 199.511719 29.671875 186.484375 13.15625 170 15.152344 C 162.21875 16.09375 153.382812 21.707031 157.757812 45.117188 L 166.171875 90.207031 C 160.519531 82.589844 151.476562 77.632812 141.261719 77.632812 C 127.96875 77.632812 116.652344 86.003906 112.234375 97.757812 L 91.554688 97.757812 L 91.554688 217.484375 L 283.132812 217.484375 Z M 263.972656 198.328125 L 110.710938 198.328125 L 110.710938 116.917969 L 263.972656 116.917969 Z M 263.972656 198.328125 " fill-opacity="1" fill-rule="nonzero"/></svg>